<?xml version="1.0" encoding="iso-8859-1"?>
<!-- Generator: Adobe Illustrator 19.0.0, SVG Export Plug-In . SVG Version: 6.00 Build 0)  -->
<svg version="1.1" id="Capa_1" xmlns="http://www.w3.org/2000/svg" xmlns:xlink="http://www.w3.org/1999/xlink" x="0px" y="0px"
	 viewBox="0 0 512 512" style="enable-background:new 0 0 512 512;" xml:space="preserve">
<g>
	<g>
		<g>
			<path d="M501.333,384c5.891,0,10.667-4.776,10.667-10.667V10.667C512,4.776,507.224,0,501.333,0H266.667
				C260.776,0,256,4.776,256,10.667v138.667H42.667C36.776,149.333,32,154.109,32,160v288c-17.673,0-32,14.327-32,32
				s14.327,32,32,32h448c17.673,0,32-14.327,32-32s-14.327-32-32-32v-64H501.333z M277.333,21.333h213.333V64H277.333V21.333z
				 M277.333,85.333h213.333v213.333H277.333V85.333z M53.333,170.667H256v202.667c0,5.891,4.776,10.667,10.667,10.667h192v64
				H53.333V170.667z M490.667,480c0,5.891-4.776,10.667-10.667,10.667H32c-5.891,0-10.667-4.776-10.667-10.667
				c0-5.891,4.776-10.667,10.667-10.667h160V480h128v-10.667h160C485.891,469.333,490.667,474.109,490.667,480z M277.333,362.667
				V320h213.333v42.667H277.333z"/>
			<rect x="458.667" y="32" width="21.333" height="21.333"/>
			<rect x="362.667" y="330.667" width="42.667" height="21.333"/>
			<path d="M384,106.667c-47.128,0-85.333,38.205-85.333,85.333s38.205,85.333,85.333,85.333s85.333-38.205,85.333-85.333
				S431.128,106.667,384,106.667z M384,256c-35.346,0-64-28.654-64-64c0-35.346,28.654-64,64-64c35.346,0,64,28.654,64,64
				C448,227.346,419.346,256,384,256z"/>
			<path d="M394.667,138.667h-21.333v10.667h-10.667c-5.891,0-10.667,4.776-10.667,10.667v32c0,5.891,4.776,10.667,10.667,10.667h32
				v10.667H352v21.333h21.333v10.667h21.333v-10.667h10.667c5.891,0,10.667-4.776,10.667-10.667v-32
				c0-5.891-4.776-10.667-10.667-10.667h-32v-10.667H416v-21.333h-21.333V138.667z"/>
			<path d="M74.667,224v21.333H96V224c0-5.891,4.776-10.667,10.667-10.667H128V192h-21.333C88.994,192,74.667,206.327,74.667,224z"
				/>
			<path d="M96,394.667v-21.333H74.667v21.333c0,17.673,14.327,32,32,32H128v-21.333h-21.333C100.776,405.333,96,400.558,96,394.667
				z"/>
		</g>
	</g>
</g>
<g>
</g>
<g>
</g>
<g>
</g>
<g>
</g>
<g>
</g>
<g>
</g>
<g>
</g>
<g>
</g>
<g>
</g>
<g>
</g>
<g>
</g>
<g>
</g>
<g>
</g>
<g>
</g>
<g>
</g>
</svg>
